# xmcd
#
# Track frame offsets:
#	150
#	9189
#	24382
#	38285
#	57769
#	70746
#	86403
#	98575
#	112326
#	126234
#	139776
#	151114
#	159599
#	171498
#	185930
#	202010
#	220470
#	232193
#	248097
#	263139
#	272918
#	287883
#
# Disc length: 4083 seconds
#
# Revision: 1
# Processed by: cddbd v1.5.2PL0 Copyright (c) Steve Scherf et al.
# Submitted via: audiograbber 1.83.01
#
DISCID=3f0ff116
DTITLE=The Dancehall Racketeers - The Preston Years
DYEAR=2008
DGENRE=Western Swing
TTITLE0=C Jam Blues
TTITLE1=Rocket 88
TTITLE2=Allons A Lafayette
TTITLE3=My Little Grass Shack In Kealekakuka Hawaii
TTITLE4=Freight Train Boogie
TTITLE5=Hole In My Pocket
TTITLE6=Rock And Roll Carpenter
TTITLE7=Rompin And Stompin' All Night Long
TTITLE8=Hillbilly Swing
TTITLE9=Sure Thing
TTITLE10=Good Rockin' Tonight
TTITLE11=Snow Deer
TTITLE12=10:10AM
TTITLE13=Right Or Wrong
TTITLE14=A Touch Of Boogie
TTITLE15=Dig The Boogie
TTITLE16=Hi-Flyer Stomp
TTITLE17=Tired Of Rockin'
TTITLE18=Deep Elm Blues
TTITLE19=Honeysuckle Rose
TTITLE20=Stock Car Boogie
TTITLE21=Jumpin At The Woodside
EXTD=Band leader is Andy Baylor.  The recordings cover the years 1981 to 1986. 
EXTD=Melbourne, Victoria, Australia.  This CD released March 2008.
EXTT0=Recorded 1983
EXTT1=Recorded 1981
EXTT2=Recorded 1985
EXTT3=Recorded 1981
EXTT4=Recorded 1983
EXTT5=Recorded 1985
EXTT6=Recorded 1984
EXTT7=Recorded 1981
EXTT8=Recorded 1981 live
EXTT9=Recorded 1985
EXTT10=Recorded 1983
EXTT11=Recorded 1983
EXTT12=Recorded 1984
EXTT13=Recorded 1981
EXTT14=Recorded 1981
EXTT15=Recorded 1981
EXTT16=Recorded 1981
EXTT17=Recorded 1983
EXTT18=Recorded 1985
EXTT19=Recorded 1981
EXTT20=Recorded 1984
EXTT21=Recorded 1981
PLAYORDER=
